<svg fill="none" stroke="#000" stroke-linecap="round" stroke-linejoin="round" viewBox="0 0 202 318" xmlns="http://www.w3.org/2000/svg" xmlns:xlink="http://www.w3.org/1999/xlink">

<pattern id="a" width="9" height="9" patternTransform="rotate(45)" patternUnits="userSpaceOnUse">
<path d="m0 0h9"/>
</pattern>
<pattern id="b" width="18" height="18" patternTransform="rotate(-45)" patternUnits="userSpaceOnUse">
<path d="m0 0h18"/>
</pattern>

<g stroke-width=".5" >
<path d="m133 121v91l-6 6v50l-24 14-24-14v-50l-6-6v-91h-61c-1 64 6 188 92 188s94-147 90-188z" fill="url(#a)"/>
<path d="m194 121c-1-13-7-37-7-50h-49v50z" fill="url(#b)"/>
<path d="m19 71c0 8-7 30-7 50h56v-50z" fill="url(#b)"/>
</g>

<g id="c">
<path d="m73 212v32m6-28v-145"/>
<path d="m103 71h-84m-7 50h61m-17-62v-34h40v17h7m-35 78v-49m11 147v50l24 14m-30-211v141l9 8m-35-149v-12h56m-30 185h30m0-24h-21m-9-8h30m-24 56h24" stroke="#00f" stroke-width="3"/>
</g>
<use transform="matrix(-1,0,0,1,206,0)" xlink:href="#c"/>
<path d="m103 12v302" stroke="#f70" stroke-dasharray="99,9,5,9"/>
</svg>
