<svg width="205" height="292" xmlns="http://www.w3.org/2000/svg" xmlns:xlink="http://www.w3.org/1999/xlink" stroke="#000" stroke-linecap="round" stroke-linejoin="round" fill="none"><defs><pattern id="a" width="9" height="10" patternTransform="rotate(45)" patternUnits="userSpaceOnUse"><rect x="1" y="0" width="1" height="10" fill="#000" stroke="none"/></pattern><pattern id="b" xlink:href="#a" patternTransform="rotate(135)" width="18" height="10"/></defs><g fill="url(#a)"><path d="m13 106h57v-47h-57c1 6 2 41 0 47"/><path d="m192 106h-57v-47h57c-2 16-4 33 0 47"/></g><g fill="url(#b)"><path d="m70 106v70h-57c-3-25-5-51 0-70"/><path d="m135 106v70h57c3-25 4-52 0-70"/></g><g id="h"><path d="m80 265v-28"/><path d="m80 176v-47"/><g stroke-width="2.5"><path d="m13 176h89"/><path id="c" d="m102 24h-38l-10 6v29-29c11-7 19-4 24 0l-0 29 0-29c6-3 15-5 24-5"/><path d="m102 59h-89"/><path d="m102 176h-42v14h42"/><path d="m70 59c2 0 5 2 5 5v65h27-27v47"/><path d="m70 59v47h-57 57v70"/><use transform="translate(0 166)" xlink:href="#c"/><use transform="matrix(1 0 0 -1 0 260)" xlink:href="#c"/><path d="m102 267h-20l-7-7h27-27v-23"/></g></g><g stroke-width="2.5"><path d="m94 176 5 14"/><path d="m105 176 5 14"/></g><use transform="matrix(-1 0 0 1 205 0)" xlink:href="#h"/><path d="m102 11v271" stroke-dasharray="55,6,3,6"/></svg>
