<?xml version="1.0" encoding="UTF-8" standalone="no"?>
<!-- Created with Inkscape (http://www.inkscape.org/) -->

<svg
   xmlns:dc="http://purl.org/dc/elements/1.1/"
   xmlns:cc="http://creativecommons.org/ns#"
   xmlns:rdf="http://www.w3.org/1999/02/22-rdf-syntax-ns#"
   xmlns:svg="http://www.w3.org/2000/svg"
   xmlns="http://www.w3.org/2000/svg"
   version="1.1"
   width="447"
   height="429"
   id="svg3039">
  <metadata
     id="metadata3045">
    <rdf:RDF>
      <cc:Work
         rdf:about="">
        <dc:format>image/svg+xml</dc:format>
        <dc:type
           rdf:resource="http://purl.org/dc/dcmitype/StillImage" />
        <dc:title></dc:title>
      </cc:Work>
    </rdf:RDF>
  </metadata>
  <defs
     id="defs3043">
    <marker
       refX="0"
       refY="0"
       orient="auto"
       id="Arrow1Lstart"
       style="overflow:visible">
      <path
         d="M 0,0 5,-5 -12.5,0 5,5 0,0 z"
         transform="matrix(0.8,0,0,0.8,10,0)"
         id="path4118"
         style="fill-rule:evenodd;stroke:#000000;stroke-width:1pt;marker-start:none" />
    </marker>
  </defs>
  <text
     x="19.907408"
     y="31.314814"
     id="text3065"
     xml:space="preserve"
     style="font-size:40px;font-style:normal;font-weight:normal;line-height:125%;letter-spacing:0px;word-spacing:0px;fill:#000000;fill-opacity:1;stroke:none;font-family:Bitstream Vera Sans"><tspan
       x="19.907408"
       y="31.314814"
       id="tspan3067"
       style="font-size:13px;font-style:normal;font-variant:normal;font-weight:normal;font-stretch:normal;font-family:Sans;-inkscape-font-specification:Helvetica">Part Outlines</tspan></text>
  <text
     x="15.27778"
     y="89.185188"
     id="text3069"
     xml:space="preserve"
     style="font-size:40px;font-style:normal;font-weight:normal;line-height:125%;letter-spacing:0px;word-spacing:0px;fill:#000000;fill-opacity:1;stroke:none;font-family:Bitstream Vera Sans"><tspan
       x="15.27778"
       y="89.185188"
       id="tspan3071"
       style="font-size:13px;font-style:normal;font-variant:normal;font-weight:normal;font-stretch:normal;font-family:Sans;-inkscape-font-specification:Helvetica">Section Lines</tspan></text>
  <text
     x="18.055552"
     y="145.66667"
     id="text3073"
     xml:space="preserve"
     style="font-size:40px;font-style:normal;font-weight:normal;line-height:125%;letter-spacing:0px;word-spacing:0px;fill:#000000;fill-opacity:1;stroke:none;font-family:Bitstream Vera Sans"><tspan
       x="18.055552"
       y="145.66667"
       id="tspan3075"
       style="font-size:13px">Hidden Lines</tspan></text>
  <text
     x="18.518524"
     y="203.07408"
     id="text3077"
     xml:space="preserve"
     style="font-size:40px;font-style:normal;font-weight:normal;line-height:125%;letter-spacing:0px;word-spacing:0px;fill:#000000;fill-opacity:1;stroke:none;font-family:Bitstream Vera Sans"><tspan
       x="18.518524"
       y="203.07408"
       id="tspan3079"
       style="font-size:13px">Center Lines</tspan></text>
  <text
     x="0.46296465"
     y="252.61111"
     id="text3081"
     xml:space="preserve"
     style="font-size:40px;font-style:normal;font-weight:normal;line-height:125%;letter-spacing:0px;word-spacing:0px;fill:#000000;fill-opacity:1;stroke:none;font-family:Bitstream Vera Sans"><tspan
       x="0.46296465"
       y="252.61111"
       id="tspan3083"
       style="font-size:13px">Dimension and</tspan><tspan
       x="0.46296465"
       y="268.86111"
       id="tspan3085"
       style="font-size:13px">Extension Lines</tspan></text>
  <text
     x="15.277776"
     y="316.50003"
     id="text3087"
     xml:space="preserve"
     style="font-size:40px;font-style:normal;font-weight:normal;line-height:125%;letter-spacing:0px;word-spacing:0px;fill:#000000;fill-opacity:1;stroke:none;font-family:Bitstream Vera Sans"><tspan
       x="15.277776"
       y="316.50003"
       id="tspan3089"
       style="font-size:13px">Cutting Plane</tspan></text>
  <text
     x="20.833334"
     y="393.81479"
     id="text3091"
     xml:space="preserve"
     style="font-size:40px;font-style:normal;font-weight:normal;line-height:125%;letter-spacing:0px;word-spacing:0px;fill:#000000;fill-opacity:1;stroke:none;font-family:Bitstream Vera Sans"><tspan
       x="20.833334"
       y="393.81479"
       id="tspan3093"
       style="font-size:13px">Break Lines</tspan></text>
  <text
     x="252.31482"
     y="21.129633"
     id="text3095"
     xml:space="preserve"
     style="font-size:13px;font-style:normal;font-variant:normal;font-weight:normal;font-stretch:normal;text-align:start;line-height:125%;letter-spacing:0px;word-spacing:0px;writing-mode:lr-tb;text-anchor:start;fill:#000000;fill-opacity:1;stroke:none;font-family:Sans;-inkscape-font-specification:Sans"><tspan
       x="252.31482"
       y="21.129633"
       id="tspan3097">Heavy</tspan></text>
  <text
     x="256.94446"
     y="79.925926"
     id="text3099"
     xml:space="preserve"
     style="font-size:13px;font-style:normal;font-variant:normal;font-weight:normal;font-stretch:normal;text-align:start;line-height:125%;letter-spacing:0px;word-spacing:0px;writing-mode:lr-tb;text-anchor:start;fill:#000000;fill-opacity:1;stroke:none;font-family:Sans;-inkscape-font-specification:Sans"><tspan
       x="256.94446"
       y="79.925926"
       id="tspan3101">Light</tspan></text>
  <text
     x="248.14815"
     y="137.7963"
     id="text3103"
     xml:space="preserve"
     style="font-size:13px;font-style:normal;font-variant:normal;font-weight:normal;font-stretch:normal;text-align:start;line-height:125%;letter-spacing:0px;word-spacing:0px;writing-mode:lr-tb;text-anchor:start;fill:#000000;fill-opacity:1;stroke:none;font-family:Sans;-inkscape-font-specification:Sans"><tspan
       x="248.14815"
       y="137.7963"
       id="tspan3105">Medium</tspan></text>
  <text
     x="256.94446"
     y="192.42593"
     id="text3107"
     xml:space="preserve"
     style="font-size:13px;font-style:normal;font-variant:normal;font-weight:normal;font-stretch:normal;text-align:start;line-height:125%;letter-spacing:0px;word-spacing:0px;writing-mode:lr-tb;text-anchor:start;fill:#000000;fill-opacity:1;stroke:none;font-family:Sans;-inkscape-font-specification:Sans"><tspan
       x="256.94446"
       y="192.42593"
       id="tspan3109">Light</tspan></text>
  <text
     x="258.33331"
     y="241.50002"
     id="text3111"
     xml:space="preserve"
     style="font-size:13px;font-style:normal;font-variant:normal;font-weight:normal;font-stretch:normal;text-align:start;line-height:125%;letter-spacing:0px;word-spacing:0px;writing-mode:lr-tb;text-anchor:start;fill:#000000;fill-opacity:1;stroke:none;font-family:Sans;-inkscape-font-specification:Sans"><tspan
       x="258.33331"
       y="241.50002"
       id="tspan3113">Light</tspan></text>
  <text
     x="253.7037"
     y="260.94446"
     id="text3115"
     xml:space="preserve"
     style="font-size:13px;font-style:normal;font-variant:normal;font-weight:normal;font-stretch:normal;text-align:start;line-height:125%;letter-spacing:0px;word-spacing:0px;writing-mode:lr-tb;text-anchor:start;fill:#000000;fill-opacity:1;stroke:none;font-family:Sans;-inkscape-font-specification:Sans"><tspan
       x="253.7037"
       y="260.94446"
       id="tspan3117">3.000</tspan></text>
  <text
     x="252.31482"
     y="305.38889"
     id="text3119"
     xml:space="preserve"
     style="font-size:13px;font-style:normal;font-variant:normal;font-weight:normal;font-stretch:normal;text-align:start;line-height:125%;letter-spacing:0px;word-spacing:0px;writing-mode:lr-tb;text-anchor:start;fill:#000000;fill-opacity:1;stroke:none;font-family:Sans;-inkscape-font-specification:Sans"><tspan
       x="252.31482"
       y="305.38889"
       id="tspan3121">Heavy</tspan></text>
  <text
     x="252.31482"
     y="360.48148"
     id="text3123"
     xml:space="preserve"
     style="font-size:13px;font-style:normal;font-variant:normal;font-weight:normal;font-stretch:normal;text-align:start;line-height:125%;letter-spacing:0px;word-spacing:0px;writing-mode:lr-tb;text-anchor:start;fill:#000000;fill-opacity:1;stroke:none;font-family:Sans;-inkscape-font-specification:Sans"><tspan
       x="252.31482"
       y="360.48148"
       id="tspan3125">Heavy</tspan></text>
  <text
     x="256.48148"
     y="403.53702"
     id="text3127"
     xml:space="preserve"
     style="font-size:13px;font-style:normal;font-variant:normal;font-weight:normal;font-stretch:normal;text-align:start;line-height:125%;letter-spacing:0px;word-spacing:0px;writing-mode:lr-tb;text-anchor:start;fill:#000000;fill-opacity:1;stroke:none;font-family:Sans;-inkscape-font-specification:Sans"><tspan
       x="256.48148"
       y="403.53702"
       id="tspan3129">Light</tspan></text>
  <text
     x="163.58989"
     y="241.15694"
     transform="scale(0.58967985,1.6958355)"
     id="text3131"
     xml:space="preserve"
     style="font-size:15.40212822px;font-style:normal;font-variant:normal;font-weight:normal;font-stretch:normal;text-align:start;line-height:132.00000525%;letter-spacing:0px;word-spacing:0px;writing-mode:lr-tb;text-anchor:start;fill:#000000;fill-opacity:1;stroke:none;font-family:Sans;-inkscape-font-specification:Sans"><tspan
       x="163.58989"
       y="241.15694"
       id="tspan3133"
       style="font-size:36.32733154px;font-style:normal;line-height:132.00000525%;-inkscape-font-specification:Sans">{</tspan></text>
  <path
     d="m 110.18519,28.537037 330.09259,0"
     id="path3135"
     style="fill:none;stroke:#000000;stroke-width:2.70000005;stroke-linecap:butt;stroke-linejoin:miter;stroke-miterlimit:4;stroke-opacity:1;stroke-dasharray:none" />
  <path
     d="m 106.01851,85.944444 332.87037,0"
     id="path3905"
     style="fill:none;stroke:#000000;stroke-width:1.29999995;stroke-linecap:butt;stroke-linejoin:miter;stroke-miterlimit:4;stroke-opacity:1;stroke-dasharray:none" />
  <path
     d="m 105.55556,143.35185 335.17911,0"
     id="path3907"
     style="fill:none;stroke:#000000;stroke-width:2.10599995;stroke-linecap:butt;stroke-linejoin:miter;stroke-miterlimit:4;stroke-opacity:1;stroke-dasharray:8.424, 2.106;stroke-dashoffset:0" />
  <path
     d="m 105.09259,199.37037 25.1047,0"
     id="path4091"
     style="fill:none;stroke:#000000;stroke-width:1.03114402px;stroke-linecap:butt;stroke-linejoin:miter;stroke-opacity:1" />
  <path
     d="m 132.33213,199.40071 7.92773,0"
     id="path4093"
     style="fill:none;stroke:#000000;stroke-width:1px;stroke-linecap:butt;stroke-linejoin:miter;stroke-opacity:1" />
  <path
     d="m 142.69916,199.40071 55.18921,0"
     id="path4095"
     style="fill:none;stroke:#000000;stroke-width:1px;stroke-linecap:butt;stroke-linejoin:miter;stroke-opacity:1" />
  <path
     d="m 201.81182,199.40071 6.11808,0"
     id="path4097"
     style="fill:none;stroke:#000000;stroke-width:0.97748518px;stroke-linecap:butt;stroke-linejoin:miter;stroke-opacity:1" />
  <path
     d="m 211.60944,199.40071 54.27447,0"
     id="path4099"
     style="fill:none;stroke:#000000;stroke-width:1px;stroke-linecap:butt;stroke-linejoin:miter;stroke-opacity:1" />
  <path
     d="m 268.93304,199.40071 7.3179,0"
     id="path4101"
     style="fill:none;stroke:#000000;stroke-width:1px;stroke-linecap:butt;stroke-linejoin:miter;stroke-opacity:1" />
  <path
     d="m 279.30007,199.40071 54.8843,0"
     id="path4103"
     style="fill:none;stroke:#000000;stroke-width:1px;stroke-linecap:butt;stroke-linejoin:miter;stroke-opacity:1" />
  <path
     d="m 337.23349,199.40071 7.013,0"
     id="path4105"
     style="fill:none;stroke:#000000;stroke-width:1px;stroke-linecap:butt;stroke-linejoin:miter;stroke-opacity:1" />
  <path
     d="m 347.60053,199.40071 54.27446,0"
     id="path4107"
     style="fill:none;stroke:#000000;stroke-width:1px;stroke-linecap:butt;stroke-linejoin:miter;stroke-opacity:1" />
  <path
     d="m 404.92412,199.40071 7.01299,0"
     id="path4109"
     style="fill:none;stroke:#000000;stroke-width:1px;stroke-linecap:butt;stroke-linejoin:miter;stroke-opacity:1" />
  <path
     d="m 415.30346,199.40071 24.38071,0"
     id="path4111"
     style="fill:none;stroke:#000000;stroke-width:1.01248395px;stroke-linecap:butt;stroke-linejoin:miter;stroke-opacity:1" />
  <path
     d="m 106.59636,256.41939 141.90753,0"
     id="path4113"
     style="fill:none;stroke:#000000;stroke-width:1.0135982px;stroke-linecap:butt;stroke-linejoin:miter;stroke-opacity:1;marker-start:url(#Arrow1Lstart)" />
  <path
     d="m 437.24488,256.7243 -141.90753,0"
     id="path4559"
     style="fill:none;stroke:#000000;stroke-width:1.0135982px;stroke-linecap:butt;stroke-linejoin:miter;stroke-opacity:1;marker-start:url(#Arrow1Lstart)" />
  <path
     d="m 439.37926,249.10148 0,30.18636"
     id="path4561"
     style="fill:none;stroke:#000000;stroke-width:1.10000002;stroke-linecap:butt;stroke-linejoin:miter;stroke-miterlimit:4;stroke-opacity:1;stroke-dasharray:none" />
  <path
     d="m 105.19489,249.10148 0,30.18636"
     id="path4563"
     style="fill:none;stroke:#000000;stroke-width:1.10000002;stroke-linecap:butt;stroke-linejoin:miter;stroke-miterlimit:4;stroke-opacity:1;stroke-dasharray:none" />
  <path
     d="m 106.41454,313.841 333.57454,0"
     id="path4565"
     style="fill:none;stroke:#000000;stroke-width:2.70000005;stroke-linecap:butt;stroke-linejoin:miter;stroke-miterlimit:4;stroke-opacity:1;stroke-dasharray:10.80000019, 2.70000005;stroke-dashoffset:0" />
  <path
     d="m 105.82315,313.593 52.427,0.002"
     id="path4567"
     style="fill:none;stroke:#000000;stroke-width:3.16199994;stroke-linecap:butt;stroke-linejoin:miter;stroke-miterlimit:4;stroke-opacity:1;stroke-dasharray:none" />
  <path
     d="m 187.17841,313.38789 65.2001,0.002"
     id="path4569"
     style="fill:none;stroke:#000000;stroke-width:3.52621245;stroke-linecap:butt;stroke-linejoin:miter;stroke-miterlimit:4;stroke-opacity:1;stroke-dasharray:none" />
  <path
     d="m 282.00627,313.38789 65.2001,0.002"
     id="path4571"
     style="fill:none;stroke:#000000;stroke-width:3.52621245;stroke-linecap:butt;stroke-linejoin:miter;stroke-miterlimit:4;stroke-opacity:1;stroke-dasharray:none" />
  <path
     d="m 375.61448,313.38789 65.2001,0.002"
     id="path4573"
     style="fill:none;stroke:#000000;stroke-width:3.52621245;stroke-linecap:butt;stroke-linejoin:miter;stroke-miterlimit:4;stroke-opacity:1;stroke-dasharray:none" />
  <path
     d="m 116.17175,370.45675 c 0.0585,-0.22067 2.71834,0.1654 3.04913,0 0.12856,-0.0643 0.16855,-0.25946 0.30491,-0.30491 0.19285,-0.0643 0.42801,0.0909 0.60983,0 0.0909,-0.0455 -0.0719,-0.23304 0,-0.30491 0.10306,-0.10306 1.56871,0.0869 1.82947,0 0.21561,-0.0719 0.38935,-0.24979 0.60983,-0.30491 0.39441,-0.0986 0.85602,0.18181 1.21965,0 0.0909,-0.0455 -0.0909,-0.25946 0,-0.30492 0.3245,-0.16225 1.15931,0.12069 1.21965,0 0.0909,-0.18181 -0.16913,-0.49707 0,-0.60982 0.11929,-0.0795 1.56692,0 1.82948,0 0.42714,0 1.75664,0.0944 2.13439,0 0.31181,-0.078 0.59957,-0.24188 0.91474,-0.30492 0.0205,-0.004 1.1071,-0.075 1.21965,0 0.23919,0.15947 0.3527,0.48127 0.60982,0.60983 0.18182,0.0909 0.42801,-0.0909 0.60983,0 0.25712,0.12856 0.3527,0.48126 0.60982,0.60983 0.11134,0.0557 1.46522,-0.0593 1.52457,0 0.0719,0.0719 -0.0719,0.23304 0,0.30491 0.15245,0.15245 0.76228,-0.15246 0.91473,0 0.0719,0.0719 -0.0719,0.23304 0,0.30491 0.14374,0.14374 0.42802,-0.0909 0.60983,0 0.12856,0.0643 0.17635,0.24063 0.30491,0.30491 0.18182,0.0909 0.42801,-0.0909 0.60983,0 0.12856,0.0643 0.17635,0.24063 0.30491,0.30492 0.12779,0.0639 1.19972,-0.0399 1.21965,0 0.0909,0.18181 -0.0909,0.42801 0,0.60982 0.0324,0.0648 0.60537,-0.0773 0.91474,0 0.22048,0.0551 0.39422,0.23305 0.60983,0.30491 0.19284,0.0643 0.42801,-0.0909 0.60982,0 0.12856,0.0643 0.16855,0.25946 0.30491,0.30492 0.26916,0.0897 0.89933,0 1.21966,0 0.91473,0 1.82947,0 2.74421,0 0.2657,0 2.30522,0.067 2.4393,0 0.12856,-0.0643 0.16547,-0.27005 0.30491,-0.30492 0.59162,-0.1479 1.22795,0.10026 1.82948,0 0.31703,-0.0528 0.60293,-0.22696 0.91474,-0.30491 0.19721,-0.0493 0.42801,0.0909 0.60982,0 0.12857,-0.0643 0.16856,-0.25946 0.30492,-0.30491 0.48211,-0.1607 1.02329,0.0835 1.52456,0 0.31703,-0.0528 0.59957,-0.24188 0.91474,-0.30491 0.47963,-0.0959 1.05024,0.11858 1.52456,0 0.22049,-0.0551 0.38935,-0.2498 0.60983,-0.30492 0.29581,-0.074 0.64201,0.13636 0.91474,0 0.92985,-0.46492 -0.55767,-0.24172 0.91474,-0.60982 0.1972,-0.0493 0.40655,0 0.60982,0 0.20328,-0.10164 0.39422,-0.23305 0.60983,-0.30491 0.27442,-0.0915 0.64031,0.0915 0.91473,0 0.21561,-0.0719 0.38935,-0.2498 0.60983,-0.30492 0.19721,-0.0493 0.41698,0.0643 0.60983,0 0.13636,-0.0455 0.17635,-0.24063 0.30491,-0.30491 0.10907,-0.0545 0.86764,0.0942 0.91474,0 0.0909,-0.18182 -0.0909,-0.42801 0,-0.60983 0.0204,-0.0408 1.10748,0 1.52456,0 0.91474,0 1.82948,0 2.74421,0 0.10164,0 0.20328,0 0.30492,0 0.10163,0 0.23304,-0.0719 0.30491,0 0.0719,0.0719 -0.0909,0.25946 0,0.30492 0.11134,0.0557 1.46522,-0.0593 1.52456,0 0.0719,0.0719 -0.0719,0.23304 0,0.30491 0.0719,0.0719 0.21401,-0.0455 0.30492,0 0.12856,0.0643 0.17635,0.24063 0.30491,0.30491 0.0909,0.0455 0.20849,-0.0321 0.30491,0 0.43121,0.14374 0.78844,0.46609 1.21965,0.60983 0.0964,0.0321 0.23305,-0.0719 0.30492,0 0.0719,0.0719 -0.0909,0.25946 0,0.30491 0.31255,0.15628 1.21023,-0.15717 1.52456,0 0.12856,0.0643 0.17635,0.24063 0.30491,0.30491 0.18922,0.0946 1.08402,0 1.21965,0 0.8131,0 1.6262,0 2.43931,0 2.64257,0 5.28515,0 7.92773,0 0.71146,0 1.42292,0 2.13439,0 0.40655,0 0.82523,-0.0986 1.21965,0 0.22048,0.0551 0.38934,0.2498 0.60982,0.30492 0.29581,0.074 0.62547,-0.0964 0.91474,0 0.21561,0.0719 0.38934,0.24979 0.60983,0.30491 0.48371,0.12093 1.37751,-0.15066 1.82947,0 0.21561,0.0719 0.38697,0.26034 0.60983,0.30491 0.19388,0.0388 1.648,-0.0907 1.82947,0 0.80546,0.40273 -0.2552,0.98566 0.91474,1.21965 0.46879,0.0938 2.44463,-0.14979 2.74422,0 0.12856,0.0643 0.17635,0.24063 0.30491,0.30492 0.14693,0.0735 1.00878,0 1.21965,0 0.31116,0 1.87338,-0.087 2.13439,0 0.21561,0.0719 0.38934,0.24979 0.60983,0.30491 0.1972,0.0493 0.40655,0 0.60982,0 0.30491,0 0.60983,0 0.91474,0 0.91474,0 1.82948,0 2.74421,0 0.71147,0 1.42293,0 2.13439,0 0.24739,0 0.68174,0.0777 0.91474,0 0.21561,-0.0719 0.38934,-0.24979 0.60983,-0.30491 0.49301,-0.12326 1.02329,0.0835 1.52456,0 0.31703,-0.0528 0.59771,-0.25208 0.91474,-0.30492 1.08778,-0.18129 2.26893,0.1973 3.35404,0 0.63244,-0.11499 1.20586,-0.45392 1.82948,-0.60982 0.59977,-0.14995 1.22969,-0.15497 1.82947,-0.30492 2.72603,-0.6815 5.14072,-2.22165 7.92773,-2.74421 0.59938,-0.11238 1.21965,0 1.82948,0 0.20327,0 0.40655,0 0.60982,0 0.10164,0 0.27278,0.0964 0.30492,0 0.0964,-0.28927 -0.16914,-0.66104 0,-0.91474 0.11275,-0.16913 0.4105,0.0399 0.60982,0 0.31517,-0.063 0.60983,-0.20327 0.91474,-0.30491 0.30491,-0.10164 0.59957,-0.24188 0.91474,-0.30491 0.29899,-0.0598 0.60983,0 0.91474,0 1.01637,0 2.03275,0 3.04913,0 0.43729,0 2.15824,-0.0937 2.4393,0 0.43121,0.14373 0.78844,0.46608 1.21965,0.60982 0.0964,0.0321 0.214,-0.0455 0.30491,0 0.12856,0.0643 0.24063,0.17635 0.30491,0.30491 0.0455,0.0909 -0.0909,0.25946 0,0.30492 0.18182,0.0909 0.40655,0 0.60983,0 0.10164,0 0.23304,-0.0719 0.30491,0 0.16071,0.1607 0.11582,0.48376 0.30491,0.60982 0.91474,0.60983 0.30492,-0.30491 0.91474,0 0.12857,0.0643 0.17635,0.24063 0.30492,0.30492 0.0909,0.0455 0.23304,-0.0719 0.30491,0 0.0719,0.0719 -0.0719,0.23304 0,0.30491 0.14374,0.14374 0.42801,-0.0909 0.60982,0 0.12857,0.0643 0.17635,0.24063 0.30492,0.30491 0.30109,0.15055 1.52838,-0.15054 1.82947,0 0.12857,0.0643 0.17635,0.24063 0.30492,0.30491 0.22785,0.11393 1.96547,0 2.4393,0 0.30491,0 0.60982,0 0.91474,0 0.10163,0 0.25946,-0.0909 0.30491,0 0.0909,0.18182 -0.14374,0.46609 0,0.60983 0.14374,0.14374 0.40655,0 0.60982,0 0.40655,0 0.8131,0 1.21966,0 1.21965,0 2.4393,0 3.65895,0 1.01637,0 2.03275,0 3.04913,0 0.25122,0 1.32839,0.0981 1.52456,0 0.25712,-0.12856 0.3371,-0.51892 0.60982,-0.60983 0.19285,-0.0643 0.41699,0.0643 0.60983,0 0.13636,-0.0455 0.17635,-0.24063 0.30491,-0.30491 0.0909,-0.0455 0.21401,0.0455 0.30492,0 0.12856,-0.0643 0.16205,-0.28904 0.30491,-0.30491 0.80813,-0.0898 1.6262,0 2.4393,0 0.13563,0 1.03043,0.0946 1.21965,0 0.12856,-0.0643 0.16855,-0.25946 0.30491,-0.30491 0.38569,-0.12857 0.83397,0.12856 1.21966,0 0.13636,-0.0455 0.17635,-0.24064 0.30491,-0.30492 0.0909,-0.0455 0.20849,0.0321 0.30491,0 0.21561,-0.0719 0.38934,-0.24979 0.60983,-0.30491 0.32288,-0.0807 1.58593,0.12177 1.82947,0 0.12856,-0.0643 0.17635,-0.24063 0.30492,-0.30491 0.24995,-0.12498 0.92957,0.0967 1.21965,0 0.2156,-0.0719 0.39422,-0.23305 0.60982,-0.30492 0.21246,-0.0708 1.72917,-0.0167 1.82948,0 0.31703,0.0528 0.59957,0.24188 0.91474,0.30492 0.29899,0.0598 0.60982,0 0.91473,0 0.60983,0 1.21966,0 1.82948,0 0.20328,0 0.41698,-0.0643 0.60983,0 0.13636,0.0455 0.17635,0.24063 0.30491,0.30491 0.19275,0.0964 2.78319,0 3.04913,0 0.20327,0 0.40655,0 0.60982,0 0.10164,0 0.23305,-0.0719 0.30491,0 0.0719,0.0719 -0.0909,0.25946 0,0.30491 0.18182,0.0909 0.4086,-0.0287 0.60983,0 0.51304,0.0733 1.00948,0.24768 1.52456,0.30492 0.70712,0.0786 1.42293,0 2.13439,0 0.12054,0 1.39434,-0.0651 1.52457,0 0.12856,0.0643 0.16855,0.25945 0.30491,0.30491 0.42531,0.14177 1.08432,-0.0881 1.52456,0 0.31517,0.063 0.59771,0.25207 0.91474,0.30491 0.64944,0.10824 1.74461,0 2.4393,0 0.20328,0 0.41262,-0.0493 0.60983,0 0.22048,0.0551 0.39422,0.23304 0.60982,0.30491 0.47237,0.15746 1.61361,-0.13019 2.13439,0 0.22049,0.0551 0.39422,0.23305 0.60983,0.30492 0.19284,0.0643 0.51892,-0.18182 0.60982,0 0.0909,0.18181 -0.14373,0.46608 0,0.60982 0.15246,0.15246 0.68606,-0.0762 0.91474,0 0.21561,0.0719 0.38935,0.24979 0.60983,0.30491 0.1972,0.0493 0.40655,0 0.60982,0 0.20328,0.10164 0.39422,0.23305 0.60983,0.30492 0.53057,0.17685 1.91197,-0.17578 2.4393,0 0.13636,0.0455 0.17635,0.24063 0.30491,0.30491 0.18676,0.0934 1.60876,0 1.82948,0 0.19487,0 1.68236,-0.0736 1.82948,0 0.12856,0.0643 0.17635,0.24063 0.30491,0.30491 0.0909,0.0455 0.20327,0 0.30491,0 0.20328,0 0.40655,0 0.60983,0 0.8131,0 1.6262,0 2.4393,0 0.8131,0 1.6262,0 2.4393,0 0.20328,0 0.40655,0 0.60983,0 0.10163,0 0.214,0.0455 0.30491,0 0.12856,-0.0643 0.17635,-0.24063 0.30491,-0.30491 0.20512,-0.10256 1.79741,0 2.13439,0 1.32129,0 2.64258,0 3.96387,0 0.60982,0 1.22578,0.0862 1.82947,0 0.31818,-0.0455 0.60293,-0.22696 0.91474,-0.30491 0.19721,-0.0493 0.46609,0.14373 0.60983,0 0.0719,-0.0719 -0.0719,-0.23305 0,-0.30492 0.14374,-0.14373 0.42801,0.0909 0.60982,0 0.12857,-0.0643 0.17635,-0.24063 0.30492,-0.30491 0.31642,-0.15821 1.51305,0.15821 1.82947,0 0.12857,-0.0643 0.17635,-0.24063 0.30492,-0.30491 0.18181,-0.0909 0.44069,0.11276 0.60982,0 0.23919,-0.15946 0.3527,-0.48126 0.60983,-0.60983 0.24613,-0.12307 2.64948,0.0947 2.74421,0 0.0719,-0.0719 -0.0909,-0.25946 0,-0.30491 0.60983,-0.30491 0.45737,0.15246 0.91474,0 0.21561,-0.0719 0.38697,-0.26034 0.60982,-0.30491 0.2993,-0.0599 1.78197,0.0475 1.82948,0 0.0719,-0.0719 -0.0719,-0.23305 0,-0.30491 0.0719,-0.0719 0.20328,0 0.30491,0 0.10164,0 0.20328,0 0.30492,0 1.42292,0 2.84585,0 4.26877,0 0.91474,0 1.82948,0 2.74422,0 0.23528,0 0.95049,0.0897 1.21965,0 0.21561,-0.0719 0.39422,-0.23305 0.60983,-0.30492 0.14487,-0.0483 1.64722,-0.0365 1.82947,0 2.01758,0.40352 0.40912,0.30492 2.4393,0.30492 0.50819,0 1.01638,0 1.52457,0 0.10164,0 0.25946,-0.0909 0.30491,0 0.0909,0.18181 -0.0909,0.42801 0,0.60982 0.0471,0.0942 0.80566,-0.0545 0.91474,0 0.12856,0.0643 0.17635,0.24063 0.30491,0.30491 0.18182,0.0909 0.41698,-0.0643 0.60983,0 0.2156,0.0719 0.39422,0.23305 0.60982,0.30492 0.32049,0.10682 1.1546,0 1.52457,0 1.01637,0 2.03275,0 3.04912,0 2.03276,0 4.06551,0 6.09826,0 0.12555,0 0.83402,0.0807 0.91474,0 0.0719,-0.0719 -0.0719,-0.23305 0,-0.30492 0.13219,-0.13219 1.57255,0.12846 1.82947,0 0.12857,-0.0643 0.17635,-0.24063 0.30492,-0.30491 0.18181,-0.0909 0.46608,0.14374 0.60982,0 0.0719,-0.0719 -0.0964,-0.27277 0,-0.30491 0.28927,-0.0964 0.61398,0.0501 0.91474,0 0.31703,-0.0528 0.59957,-0.24188 0.91474,-0.30491 0.29899,-0.0598 0.64201,0.13636 0.91474,0 0.12856,-0.0643 0.16855,-0.25946 0.30491,-0.30492 0.19284,-0.0643 0.41262,0.0493 0.60982,0 0.22049,-0.0551 0.39422,-0.23304 0.60983,-0.30491 0.19284,-0.0643 0.51892,0.18181 0.60983,0 0.0909,-0.18182 -0.14374,-0.46609 0,-0.60983 0.292,-0.292 1.17229,0.23678 1.21965,0 0.0997,-0.49831 -0.0997,-1.02624 0,-1.52456 7.7e-4,-0.004 0.80784,0 1.21965,0 1.01637,0 2.03275,0 3.04913,0 0.21087,0 1.07271,-0.0735 1.21965,0 0.12856,0.0643 0.17635,0.24063 0.30491,0.30491 0.0909,0.0455 0.214,-0.0455 0.30491,0 0.12856,0.0643 0.16855,0.25946 0.30491,0.30492 0.19285,0.0643 0.41699,-0.0643 0.60983,0 0.13636,0.0455 0.16855,0.25946 0.30491,0.30491 0.38569,0.12856 0.8131,0 1.21965,0 0.8131,0 1.6262,0 2.43931,0 0.10163,0 0.20327,0 0.30491,0 0.10164,0 0.23304,-0.0719 0.30491,0 0.0719,0.0719 -0.0909,0.25946 0,0.30491 0.36363,0.18182 0.85602,-0.18181 1.21965,0 0.0909,0.0455 -0.0909,0.25946 0,0.30491 0.60983,0.30492 0.45737,-0.15245 0.91474,0 0.21561,0.0719 0.39422,0.23305 0.60983,0.30492 0.36589,0.12196 0.85375,-0.12197 1.21965,0 0.2156,0.0719 0.39422,0.23304 0.60982,0.30491 0.0964,0.0321 0.21401,-0.0455 0.30491,0 0.12857,0.0643 0.16856,0.25946 0.30492,0.30491 0.30938,0.10313 1.15046,0 1.52456,0 1.11801,0 2.23603,0 3.35404,0 0.40655,0 0.83396,-0.12856 1.21965,0 0.13636,0.0455 0.16855,0.25946 0.30492,0.30492 0.0615,0.0205 1.1182,-0.10145 1.21965,0 0.0719,0.0719 -0.0909,0.25945 0,0.30491 0.17462,0.0873 1.81681,-0.0253 1.82947,0 0.0909,0.18181 -0.0909,0.42801 0,0.60982 0.0324,0.0648 0.60537,-0.0773 0.91474,0 0.22048,0.0551 0.38934,0.2498 0.60983,0.30492 0.35473,0.0887 0.86632,-0.11778 1.21965,0 0.43121,0.14373 0.77868,0.49958 1.21965,0.60982 0.29581,0.074 0.62547,-0.0964 0.91474,0 0.2156,0.0719 0.38697,0.26034 0.60982,0.30491 0.59798,0.1196 1.2315,-0.11959 1.82948,0 0.22285,0.0446 0.39422,0.23305 0.60982,0.30492 0.19285,0.0643 0.42801,-0.0909 0.60983,0 0.12856,0.0643 0.16547,0.27005 0.30491,0.30491 0.29581,0.074 0.60983,0 0.91474,0 0.44395,0 2.02068,-0.10466 2.4393,0 0.31181,0.0779 0.59771,0.25207 0.91474,0.30491 0.43103,0.0718 1.05363,0 1.52456,0 1.11802,0 2.23603,0 3.35404,0 1.01638,0 2.03276,0 3.04913,0 0.30491,0 0.61398,0.0501 0.91474,0 0.31703,-0.0528 0.59957,-0.24188 0.91474,-0.30491 0.3368,-0.0674 1.57966,0.12491 1.82947,0 0.12857,-0.0643 0.17635,-0.24063 0.30492,-0.30491 0.14693,-0.0735 1.00878,0 1.21965,0 0.48641,0 1.39863,0.10771 1.82947,0 0.22049,-0.0551 0.39422,-0.23305 0.60983,-0.30492 0.29007,-0.0967 0.96969,0.12498 1.21965,0 0.66032,-0.33016 -0.10719,-0.30491 0.91474,-0.30491 0.10164,0 0.20327,0 0.30491,0 0.10164,0 0.25946,0.0909 0.30491,0 0.0909,-0.18181 -0.0909,-0.42801 0,-0.60982 0.0455,-0.0909 0.20328,0 0.30492,0 0.8131,0 1.6262,0 2.4393,0 0.3405,0 0.89931,0.10678 1.21965,0 0.21561,-0.0719 0.39422,-0.23305 0.60983,-0.30492 0.3148,-0.10493 1.76282,0 2.13439,0"
     id="path4575"
     style="fill:none;stroke:#000000;stroke-width:3.5;stroke-linecap:butt;stroke-linejoin:miter;stroke-miterlimit:4;stroke-opacity:1;stroke-dasharray:none" />
  <path
     d="m 117.39141,410.40032 10.36703,0"
     id="path4577"
     style="fill:none;stroke:#000000;stroke-width:1px;stroke-linecap:butt;stroke-linejoin:miter;stroke-opacity:1" />
  <path
     d="m 145.74829,410.40032 67.38572,0"
     id="path4579"
     style="fill:none;stroke:#000000;stroke-width:1px;stroke-linecap:butt;stroke-linejoin:miter;stroke-opacity:1" />
  <path
     d="m 230.81895,410.40032 77.75275,0"
     id="path4581"
     style="fill:none;stroke:#000000;stroke-width:1px;stroke-linecap:butt;stroke-linejoin:miter;stroke-opacity:1" />
  <path
     d="m 326.86646,410.40032 78.9724,0"
     id="path4583"
     style="fill:none;stroke:#000000;stroke-width:1px;stroke-linecap:butt;stroke-linejoin:miter;stroke-opacity:1" />
  <path
     d="m 423.5238,410.40032 13.11125,0"
     id="path4585"
     style="fill:none;stroke:#000000;stroke-width:1px;stroke-linecap:butt;stroke-linejoin:miter;stroke-opacity:1" />
  <path
     d="m 127.75844,410.09541 2.74421,-4.8786 3.96387,15.55055 5.18352,-21.64881 3.65895,17.68494 2.74421,-6.70808"
     id="path4587"
     style="fill:none;stroke:#000000;stroke-width:1px;stroke-linecap:butt;stroke-linejoin:miter;stroke-opacity:1" />
  <path
     d="m 213.13401,410.40032 2.74421,-4.8786 3.96387,15.55055 5.18352,-21.64881 3.65895,17.68494 2.74421,-6.70808"
     id="path4589"
     style="fill:none;stroke:#000000;stroke-width:1px;stroke-linecap:butt;stroke-linejoin:miter;stroke-opacity:1" />
  <path
     d="m 308.87661,411.01015 2.74421,-4.8786 3.96387,15.55055 5.18352,-21.64881 3.65895,17.68494 2.74421,-6.70808"
     id="path4591"
     style="fill:none;stroke:#000000;stroke-width:1px;stroke-linecap:butt;stroke-linejoin:miter;stroke-opacity:1" />
  <path
     d="m 405.83886,411.01015 2.74421,-4.8786 3.96387,15.55055 5.18352,-21.64881 3.65895,17.68494 2.74421,-6.70808"
     id="path4593"
     style="fill:none;stroke:#000000;stroke-width:1px;stroke-linecap:butt;stroke-linejoin:miter;stroke-opacity:1" />
</svg>
