<?xml version="1.0" encoding="UTF-8" standalone="no"?>
<!-- Created with Inkscape (http://www.inkscape.org/) -->
<svg
   xmlns:dc="http://purl.org/dc/elements/1.1/"
   xmlns:cc="http://creativecommons.org/ns#"
   xmlns:rdf="http://www.w3.org/1999/02/22-rdf-syntax-ns#"
   xmlns:svg="http://www.w3.org/2000/svg"
   xmlns="http://www.w3.org/2000/svg"
   xmlns:sodipodi="http://sodipodi.sourceforge.net/DTD/sodipodi-0.dtd"
   xmlns:inkscape="http://www.inkscape.org/namespaces/inkscape"
   id="svg2440"
   sodipodi:version="0.32"
   inkscape:version="0.46"
   width="350"
   height="250"
   version="1.0"
   sodipodi:docname="Stellring.svg"
   inkscape:output_extension="org.inkscape.output.svg.inkscape">
  <metadata
     id="metadata2445">
    <rdf:RDF>
      <cc:Work
         rdf:about="">
        <dc:format>image/svg+xml</dc:format>
        <dc:type
           rdf:resource="http://purl.org/dc/dcmitype/StillImage" />
      </cc:Work>
    </rdf:RDF>
  </metadata>
  <defs
     id="defs2443">
    <linearGradient
       id="linearGradient3258">
      <stop
         style="stop-color:#b3b3b3;stop-opacity:0;"
         offset="0"
         id="stop3260" />
      <stop
         id="stop3266"
         offset="0"
         style="stop-color:#b3b3b3;stop-opacity:0;" />
      <stop
         style="stop-color:#b3b3b3;stop-opacity:0.51324505;"
         offset="1"
         id="stop3262" />
    </linearGradient>
    <inkscape:perspective
       sodipodi:type="inkscape:persp3d"
       inkscape:vp_x="0 : 526.18109 : 1"
       inkscape:vp_y="0 : 1000 : 0"
       inkscape:vp_z="744.09448 : 526.18109 : 1"
       inkscape:persp3d-origin="372.04724 : 350.78739 : 1"
       id="perspective2447" />
  </defs>
  <sodipodi:namedview
     inkscape:window-height="480"
     inkscape:window-width="640"
     inkscape:pageshadow="2"
     inkscape:pageopacity="0.0"
     guidetolerance="10.0"
     gridtolerance="10.0"
     objecttolerance="10.0"
     borderopacity="1.0"
     bordercolor="#666666"
     pagecolor="#ffffff"
     id="base"
     showgrid="true"
     inkscape:zoom="1.9085714"
     inkscape:cx="175"
     inkscape:cy="125"
     inkscape:current-layer="layer1">
    <inkscape:grid
       type="xygrid"
       id="grid2451"
       visible="true"
       enabled="true" />
  </sodipodi:namedview>
  <g
     inkscape:groupmode="layer"
     id="layer1"
     inkscape:label="vektro"
     style="display:inline">
    <path
       id="path3272"
       style="fill:#ffccaa;fill-rule:evenodd;stroke:#000000;stroke-width:1.5;stroke-linecap:butt;stroke-linejoin:miter;stroke-miterlimit:4;stroke-dasharray:none;stroke-opacity:1;display:inline"
       d="M 300,105 L 287.5,115 L 275,105 L 275,35 L 300,35 L 300,105 z"
       sodipodi:nodetypes="cccccc" />
    <path
       id="path3274"
       style="fill:none;fill-rule:evenodd;stroke:#000000;stroke-width:1.5;stroke-linecap:butt;stroke-linejoin:miter;stroke-miterlimit:4;stroke-dasharray:none;stroke-opacity:1;display:inline"
       d="M 300,105 L 287.5,115 L 275,105 L 275,35 L 285,35 L 290,35 L 300,35 L 300,105 z"
       sodipodi:nodetypes="cccccccc" />
    <path
       style="fill:none;fill-rule:evenodd;stroke:#000000;stroke-width:1px;stroke-linecap:butt;stroke-linejoin:miter;stroke-opacity:1;display:inline"
       d="M 277.5,35 L 277.5,75 L 277.5,107"
       id="path3276" />
    <path
       style="fill:none;fill-rule:evenodd;stroke:#000000;stroke-width:1px;stroke-linecap:butt;stroke-linejoin:miter;stroke-opacity:1;display:inline"
       d="M 277.5,35 L 277.5,35"
       id="path3278" />
    <path
       style="fill:none;fill-rule:evenodd;stroke:#000000;stroke-width:1px;stroke-linecap:butt;stroke-linejoin:miter;stroke-opacity:1;display:inline"
       d="M 297.5,35 L 297.5,75 L 297.5,107"
       id="path3280" />
    <path
       style="fill:none;fill-rule:evenodd;stroke:#000000;stroke-width:1px;stroke-linecap:butt;stroke-linejoin:miter;stroke-opacity:1;display:inline"
       d="M 297.5,35 L 297.5,35"
       id="path3282" />
    <path
       id="path3268"
       style="fill:#ffccaa;fill-rule:evenodd;stroke:#000000;stroke-width:1.5;stroke-linecap:butt;stroke-linejoin:miter;stroke-miterlimit:4;stroke-dasharray:none;stroke-opacity:1;display:inline"
       d="M 125,105 L 112.5,115 L 100,105 L 100,35 L 110,35 L 110,45 L 115,45 L 115,35 L 125,35 L 125,105 z"
       sodipodi:nodetypes="cccccccccc" />
    <path
       style="fill:none;fill-rule:evenodd;stroke:#000000;stroke-width:1px;stroke-linecap:butt;stroke-linejoin:miter;stroke-opacity:1"
       d="M 102.5,35 L 102.5,75 L 102.5,107"
       id="path3252" />
    <path
       style="fill:none;fill-rule:evenodd;stroke:#000000;stroke-width:1px;stroke-linecap:butt;stroke-linejoin:miter;stroke-opacity:1"
       d="M 122.5,35 L 122.5,75 L 122.5,107"
       id="path3247" />
    <path
       style="opacity:1;fill:#b3b3b3;fill-opacity:1;stroke:#000000;stroke-width:1.5;stroke-linecap:round;stroke-linejoin:round;stroke-miterlimit:4;stroke-dasharray:none;stroke-dashoffset:0;stroke-opacity:1"
       d="M 112.5,50 C 64.2,50 25,89.2 25,137.5 C 25,185.8 64.2,225 112.5,225 C 160.8,225 200,185.8 200,137.5 C 200,89.2 160.8,50 112.5,50 z M 112.5,60 C 155.28,60 190,94.72 190,137.5 C 190,180.28 155.28,215 112.5,215 C 69.72,215 35,180.28 35,137.5 C 35,94.72 69.72,60 112.5,60 z"
       id="path2456" />
    <path
       style="opacity:1;fill:#cccccc;fill-opacity:1;stroke:#000000;stroke-width:1.5;stroke-linecap:round;stroke-linejoin:round;stroke-miterlimit:4;stroke-dasharray:none;stroke-dashoffset:0;stroke-opacity:1"
       d="M 112.5,60 C 69.72,60 35,94.72 35,137.5 C 35,180.28 69.72,215 112.5,215 C 155.28,215 190,180.28 190,137.5 C 190,94.72 155.28,60 112.5,60 z M 112.5,100 C 133.2,100 150,116.8 150,137.5 C 150,158.2 133.2,175 112.5,175 C 91.8,175 75,158.2 75,137.5 C 75,116.8 91.8,100 112.5,100 z"
       id="path3228" />
    <path
       id="path3232"
       style="fill:none;fill-rule:evenodd;stroke:#000000;stroke-width:1.5;stroke-linecap:butt;stroke-linejoin:miter;stroke-miterlimit:4;stroke-dasharray:4.5,4.5;stroke-dashoffset:0;stroke-opacity:1"
       d="M 125,105 L 112.5,115 L 100,105 L 100,35 L 110,35 L 110,45 L 115,45 L 115,35 L 125,35 L 125,105 z"
       sodipodi:nodetypes="cccccccccc" />
    <path
       style="fill:none;fill-rule:evenodd;stroke:#000000;stroke-width:1px;stroke-linecap:butt;stroke-linejoin:miter;stroke-opacity:1"
       d="M 102.5,35 L 102.5,35"
       id="path3238" />
    <path
       style="fill:none;fill-rule:evenodd;stroke:#000000;stroke-width:1px;stroke-linecap:butt;stroke-linejoin:miter;stroke-opacity:1"
       d="M 122.5,35 L 122.5,35"
       id="path3240" />
    <path
       style="fill:#cccccc;fill-rule:evenodd;stroke:#000000;stroke-width:1px;stroke-linecap:butt;stroke-linejoin:miter;stroke-opacity:1"
       d="M 250,50 L 250,225 L 310,225 L 325,215 L 325,65 L 310,50 L 250,50 z"
       id="path3270"
       sodipodi:nodetypes="ccccccc" />
    <path
       style="fill:none;fill-rule:evenodd;stroke:#000000;stroke-width:1px;stroke-linecap:butt;stroke-linejoin:miter;stroke-opacity:1"
       d="M 310,225 L 310,50"
       id="path3284" />
    <path
       style="fill:none;fill-rule:evenodd;stroke:#000000;stroke-width:1;stroke-linecap:butt;stroke-linejoin:miter;stroke-miterlimit:4;stroke-dasharray:3, 3;stroke-dashoffset:0;stroke-opacity:1;display:inline"
       d="M 102.5,35.000003 L 102.5,75 L 102.5,107"
       id="path3286" />
    <path
       style="fill:none;fill-rule:evenodd;stroke:#000000;stroke-width:1;stroke-linecap:butt;stroke-linejoin:miter;stroke-miterlimit:4;stroke-dasharray:3, 3;stroke-dashoffset:0;stroke-opacity:1;display:inline"
       d="M 122.5,35.000003 L 122.5,75 L 122.5,107"
       id="path3288" />
    <path
       style="fill:none;fill-rule:evenodd;stroke:#000000;stroke-width:1.5;stroke-linecap:butt;stroke-linejoin:miter;stroke-miterlimit:4;stroke-dasharray:4.5,4.5;stroke-dashoffset:0;stroke-opacity:1"
       d="M 325,100 L 250,100"
       id="path3290" />
    <path
       style="fill:none;fill-rule:evenodd;stroke:#000000;stroke-width:1.5;stroke-linecap:butt;stroke-linejoin:miter;stroke-miterlimit:4;stroke-dasharray:4.5,4.5;stroke-dashoffset:0;stroke-opacity:1"
       d="M 325,175 L 250,175"
       id="path3292" />
    <path
       id="path3294"
       style="fill:none;fill-rule:evenodd;stroke:#000000;stroke-width:1.5;stroke-linecap:butt;stroke-linejoin:miter;stroke-miterlimit:4;stroke-dasharray:4.5, 4.5;stroke-dashoffset:0;stroke-opacity:1;display:inline"
       d="M 300,105 L 287.5,115 L 275,105 L 275,35 L 285,35 L 290,35 L 300,35 L 300,105 z"
       sodipodi:nodetypes="cccccccc" />
    <path
       id="path3296"
       style="fill:none;fill-rule:evenodd;stroke:#000000;stroke-width:1.5;stroke-linecap:butt;stroke-linejoin:miter;stroke-miterlimit:4;stroke-dasharray:4.5, 4.5;stroke-dashoffset:0;stroke-opacity:1;display:inline"
       d="M 300,105 L 287.5,115 L 275,105 L 275,35 L 285,35 L 290,35 L 300,35 L 300,105 z"
       sodipodi:nodetypes="cccccccc" />
    <path
       style="fill:none;fill-rule:evenodd;stroke:#000000;stroke-width:1;stroke-linecap:butt;stroke-linejoin:miter;stroke-miterlimit:4;stroke-dasharray:3, 3;stroke-dashoffset:0;stroke-opacity:1;display:inline"
       d="M 277.5,35 L 277.5,75 L 277.5,107"
       id="path3298" />
    <path
       style="fill:none;fill-rule:evenodd;stroke:#000000;stroke-width:1;stroke-linecap:butt;stroke-linejoin:miter;stroke-miterlimit:4;stroke-dasharray:3, 3;stroke-dashoffset:0;stroke-opacity:1;display:inline"
       d="M 277.5,35 L 277.5,35"
       id="path3300" />
    <path
       style="fill:none;fill-rule:evenodd;stroke:#000000;stroke-width:1;stroke-linecap:butt;stroke-linejoin:miter;stroke-miterlimit:4;stroke-dasharray:3, 3;stroke-dashoffset:0;stroke-opacity:1;display:inline"
       d="M 297.5,35 L 297.5,75 L 297.5,107"
       id="path3302" />
    <path
       style="fill:none;fill-rule:evenodd;stroke:#000000;stroke-width:1;stroke-linecap:butt;stroke-linejoin:miter;stroke-miterlimit:4;stroke-dasharray:3, 3;stroke-dashoffset:0;stroke-opacity:1;display:inline"
       d="M 297.5,35 L 297.5,35"
       id="path3304" />
    <path
       style="fill:none;fill-rule:evenodd;stroke:#000000;stroke-width:1.5;stroke-linecap:butt;stroke-linejoin:miter;stroke-opacity:1;stroke-miterlimit:4;stroke-dasharray:4.5,4.5;stroke-dashoffset:0"
       d="M 275,45 L 300,45"
       id="path3326" />
  </g>
</svg>
