<svg fill="none" stroke="#000" stroke-linecap="round" viewBox="0 0 925 480" xmlns="http://www.w3.org/2000/svg" xmlns:xlink="http://www.w3.org/1999/xlink">

<pattern id="c" patternTransform="rotate(45)" xlink:href="#a"/>
<pattern id="b" y="1" width="12" height="5.905" patternTransform="rotate(-9.03)" patternUnits="userSpaceOnUse">
<path d="m0 1h12"/>
<path d="m0 4h12" stroke-width="1.5"/>
</pattern>
<pattern id="a" width="8" height="8" patternTransform="rotate(45)" patternUnits="userSpaceOnUse">
<path d="m0 0v8"/>
</pattern>

<path d="m45.5 301.3h5l7.5 7.2 7.5-7.2h4.9m0-17.2v17.2l-12.4 7.2-12.5-7.2v-17.2c0-17.1 25-40.3 25-59.9m-25 5.3c0-17.3 25.2-43.2 25-59.7m-25 82.9v-23.6" stroke-width="1.5"/>

<path d="m45.6 196.1-.1-39.8h25v13.4m-5.1 40c3.3 4.9 5.2 12.3 5.1 14.5v24.9c.7 13.4-17.8 26.7-20 52m.1-89.2c-2.8-4.8-5.3-10.3-5-15.8.4-7.4 2.4-14.6 10.2-24.5 4.6-5.8 14.7-10.8 14.7-1.9m-23-38.4h21v25h-21zm13-70h-5c0 20-10 35-10 35v35h25v-35s-10-15-10-35zm4.9 202.9c3.3 4.9 4.8 12.1 4.8 14v5.3c0 8.4-4.1 17.5-4.1 17.5m4.4-131.3v23.2c.6 15.5-25 42.6-25 59.8 0 2.1 1.8 9.7 5.1 14.6" stroke-width="2"/>

<path d="m180 270.1 30 17.2m-.7 17c-.5-.2-1-.5-1.4-.7l-27.9-16.1" stroke-dasharray="4,2"/>
<path d="m210 65.6c-5-2.6-10-2.6-15 .4 5 3 10 3 15-.4z" fill="#ccc" stroke="none"/>

<path d="m210 66.1c-4-3.1-10.5-3.1-14.5-.1m-5.9 226.2 12.5-6.4m-14.1 3.7 12.8-6.4m1.1 1.1c1.8 3.7.3 8.2-3.4 10.1-3.7 1.8-8.2.3-10-3.4-1.9-3.8-.3-8.3 3.4-10.1s8.2-.3 10 3.4zm8.1 3.1 4.6 2.7c3.7 2.1 5 7.8 5 14.4 0 2.9-8 1-11.7-.6m-27.9-16.3-15-8.7 7.5-12.9 7.5 4.3m30-203.9v235l-5 5h-20l-5-5v-234.5" stroke-width="2"/>

<path d="m180 66.8c12-9.8 18 7.2 30-.7" stroke-width="2"/>

<path d="m295.5 307.3v-141h2v140m7.5-140c-1.9.4-1.4-5.7-1.4-9.6 0-1.8-2-1.8-2.1 0-.1 2.4-1.3 6-4 9.6m8 141v-141h2v140m7.5-140c-1.9.4-1.4-5.7-1.4-9.6 0-1.8-2-1.8-2.1 0-.1 2.4-1.3 6-4 9.6m7 141v-141h2v140"/>

<path d="m297 131v25c0 6-2 10-2 10v141l10-2m1 2 8-2m-4-244h-5c0 20-10 35-10 35v35h25v-35s-10-15-10-35zm8 70v25c0 6 2 10 2 10v140l-5 1" stroke-width="2"/>

<path d="m418 131.3v100.1c0 5.1.2 8.4 2 9.9v66l-3 2h-19l-3-2v-66c1.9-1.6 2-4.8 2-9.9v-100.1m13-70h-5c0 20-10 35-10 35v35h25v-35s-10-15-10-35z" stroke-width="2"/>

<path d="m398 306h2m6 0h3m7 0h2m-20 0v-65h2v65l1 3h-1zm8-65c-2 1-2-5-2-9 0-2-1-2-2 0 0 2-1 6-3 9m5 68 2-3v-65h4v65l2 3zm12-68c-2 1-1-5-1-9 0-2-2-2-2 0s-1 6-4 9m7 65v-65h2v65l-4 4h-1z"/>

<path d="m505 291.3h25v15l-5 2.5h-15l-5-2.5zm3-5v5h19v-5m-27-95v35c0 10-5 10-5 10v50h45v-50s-5 0-5-10v-35m-40 0 3-114.5c7-3.5 14.5-25.5 14.5-45.5h9c0 20 8.3 42 15.5 45.5l3 114.5z" stroke-width="2"/>

<path d="m520 305.8h-8.9m-5.6.5 4-15h5l-4.6 17.1m13.6.5-3-2.6 4-15h5l-4.6 17.6m.1-72.6c-3.8-0-2.9-9.8-2.9-16.3 0-3-4-3.1-4.1 0-.2 4.1-2.5 10.2-8 16.3m-15 50 15-50h-15m45 0h-15l-15 49.5 15-4.5z" stroke-width="1.5"/>

<path d="m631.3 300.3h-16.1v-15" stroke-width="1.5"/>

<path d="m639 295.8c-3.9.4-6 1.7-7 2.9v6.6h-22v-17.5l5-2.5v-25l5-5h45.3l4.7 5v25.1l5 2.9v17h-21v-5h-8m-7-15v20l7-2v-18zm26.3-30c-5 0-5.6-5-5.6-10v-20m-39.7 30c5 0 4.7-5 4.7-10v-20m-5 0 3-114.5c7-3.5 15-25.5 15-45.5h9c0 20 7.7 42 15 45.5l3 114.5z" stroke-width="2"/>

<path d="m625 291.3 6.5 6.5m-16.3 2.5s3.8-12 23.8-12m15.8 11.7 10.2-3.8 4.8-6v-4.9" stroke-width="1.5"/>

<path d="m720 331h20l10 10v65h-30zm50 10 10-10h20v75h-30zm-180-10v75h40v-70l-20-1v-4zm105 0v75h-40v-71h20v-4zm-325 0h25v75h-25zm50 0h25v75h-25zm-150 0h25v75h-25zm50 0h25v75h-25zm-300 0v75h75v-75h-25v40l-12 7-12-7v-40zm100 0h25v75h-25zm100 0h25v75h-25zm250 0v75h35v-50h-10v-25zm95 0v75h-35v-50h10v-25zm255 0v75h20l5-3-5-3 5-3-5-3 5-3-5-3 5-3-5-3 5-3-5-3 5-3-5-3 5-3-5-3 5-3-5-3 5-3-5-3 5-3-5-3 5-3-5-3 5-3-5-3 5-3zm85 0v75h-20l-5-3 5-3-5-3 5-3-5-3 5-3-5-3 5-3-5-3 5-3-5-3 5-3-5-3 5-3-5-3 5-3-5-3 5-3-5-3 5-3-5-3 5-3-5-3 5-3-5-3z" fill="url(#c)" stroke="none"/>

<path d="m785 231v50l-25 25-25-25v-50l10-10v-100l5-5h20l5 5v100z" stroke-width="2"/>

<path d="m885.5 283.2v47.8m-46-47.8v47.8m-60-39.7v40.2m-39-40.2v40.2m-66-.2v-22.8m-64 22.8v-22.8m-115 22.8v-40m44 40v-40m-10 20v45m-24 0v-45m-86 0v20.2m-24-20.2v20.2m-76-20.2v20.2m-24-20.2v20.2m-76-22.6v22.4m-149.5-27.2v27.2m-24-27.3v27.2"/>

<path d="m846.1 300.8-3-9.4 1-.4v-1.6l-2.1-1.1-.3-2.1 2.7-1.6-.2-1.8-3-1-.2-1.5 4.2-2.7m.2-114-5 3 5 3-5 3 5 3-5 3 5 3-5 3 5 3-5 3 5 3-5 3 5 3-5 3 5 3-5 3 5 3-5 3 5 3-5 3 5 3-5 3 5 3-5 3 5 3-5 3 5 3-5 3 5 3-5 3 5 3-5 3 5 3-5 3 5 3-5 3 5 3-5 3 5 3m34.6 22.9 2-11.1-1-.4v-1.6l2.1-1.1.3-2.2-2.6-1.6.1-1.7 3-1 .2-1.5-4.2-2.8m-.1-114 5 3-5 3 5 3-5 3 5 3-5 3 5 3-5 3 5 3-5 3 5 3-5 3 5 3-5 3 5 3-5 3 5 3-5 3 5 3-5 3 5 3-5 3 5 3-5 3 5 3-5 3 5 3-5 3 5 3-5 3 5 3-5 3 5 3-5 3 5 3-5 3 5 3-5 3m-34.8-111.8v-82.1h2.8v-30h29.2v30h3v80m-33.5 139.2h32.9" stroke-width="2"/>

<path d="m845.4 287.4-3.4 1.1m3.1-2.2-3.1-.2m4.5-1.2-2.1-.3m2.1-1.4-2.3-.5m1.2-1.8-3.6-.5m5.2-2.4-2.4-.5m3.8-113.5-3-.5m.5 111.5-5.5-.5m8-2.5-3-.5m.5-2.5-5.5-.5m8-2.5-3-.5m-5-3 5.5.5m2.5-3-3-.5m.5-2.5-5.5-.5m8-2.5-3-.5m.5-2.5-5.5-.5m8-2.5-3-.5m-5-3 5.5.5m2.5-3-3-.5m.5-2.5-5.5-.5m8-2.5-3-.5m.5-2.5-5.5-.5m8-2.5-3-.5m-5-3 5.5.5m2.5-3-3-.5m.5-2.5-5.5-.5m8-2.5-3-.5m.5-2.5-5.5-.5m8-2.5-3-.5m-5-3 5.5.5m2.5-3-3-.5m.5-2.5-5.5-.5m8-2.5-3-.5m.5-2.5-5.5-.5m8-2.5-3-.5m-5-3 5.5.5m2.5-3-3-.5m.5-2.5-5.5-.5m8-2.5-3-.5m.5-2.5-5.5-.5m8-2.5-3-.5m-5-3 5.5.5m2.5-3-3-.5m.5-2.5-5.5-.5m8-2.5-2.5 3 2.5 3-2.5 3 2.5 3-2.5 3 2.5 3-2.5 3 2.5 3-2.5 3 2.5 3-2.5 3 2.5 3-2.5 3 2.5 3-2.5 3 2.5 3-2.5 3 2.5 3-2.5 3 2.5 3-2.5 3 2.5 3-2.5 3 2.5 3-2.5 3 2.5 3-2.5 3 2.5 3-2.5 3 2.5 3-2.5 3 2.5 3-2.5 3 2.5 3-2.5 3 2.5 3-2.5 3 1.5 3-1.8 2.5-.1.8 1.1 1.4.2 2-1.4 1.3.1 1.1.9 1.5-2.7 4.1m36-7.3 3.4 1.1m-3.1-2.2 3.1-.2m-4.5-1.2 2.1-.3m-2.1-1.4 2.3-.5m-1.1-1.8 3.6-.5m-5.3-2.4 2.4-.5m-3.7-113.5 3-.5m-.6 111.5 5.5-.5m-7.9-2.5 3-.5m-.6-2.5 5.5-.5m-7.9-2.5 3-.5m5-3-5.5.5m-2.5-3 3-.5m-.6-2.5 5.5-.5m-7.9-2.5 3-.5m-.6-2.5 5.5-.5m-7.9-2.5 3-.5m5-3-5.5.5m-2.5-3 3-.5m-.6-2.5 5.5-.5m-7.9-2.5 3-.5m-.6-2.5 5.5-.5m-7.9-2.5 3-.5m5-3-5.5.5m-2.5-3 3-.5m-.6-2.5 5.5-.5m-7.9-2.5 3-.5m-.6-2.5 5.5-.5m-7.9-2.5 3-.5m5-3-5.5.5m-2.5-3 3-.5m-.6-2.5 5.5-.5m-7.9-2.5 3-.5m-.6-2.5 5.5-.5m-7.9-2.5 3-.5m5-3-5.5.5m-2.5-3 3-.5m-.6-2.5 5.5-.5m-7.9-2.5 3-.5m-.6-2.5 5.5-.5m-7.9-2.5 3-.5m5-3-5.5.5m-2.5-3 3-.5m-.6-2.5 5.5-.5m-7.9-2.5 2.5 3-2.5 3 2.5 3-2.5 3 2.5 3-2.5 3 2.5 3-2.5 3 2.5 3-2.5 3 2.5 3-2.5 3 2.5 3-2.5 3 2.5 3-2.5 3 2.5 3-2.5 3 2.5 3-2.5 3 2.5 3-2.5 3 2.5 3-2.5 3 2.5 3-2.5 3 2.5 3-2.5 3 2.5 3-2.5 3 2.5 3-2.5 3 2.5 3-2.5 3 2.5 3-2.5 3 2.5 3-1.5 3 1.8 2.5.1.8-1.1 1.4-.2 2 1.4 1.3-.1 1.1-.9 1.5 2.7 4.1"/>

<path d="m868 301v-140c0-17.8 8-25 8-10v7c0 3.6.8 4 .8 4m-19.6 139v-140c0-17.8-8-25-8-10v9c0 3.6-1.2 3.8-1.2 3.8m17-112.4v30c6.8 1.9 15 0 15 0m-20-30v30c-6.8 1.9-15 0-15 0" stroke-width="1.5"/>

<path d="m862.5 31.3v390m-102.5-336.3v336m-117.5-384.6v385m-125.5-400v400m-109.5-380v380m-100-380v380m-112-99.6v-278.4m-13 273v105m-124.5-380v380" stroke-dasharray="47,5,2,5"/>

<path d="m840 406.3 5-3-5-3 5-3-5-3 5-3-5-3 5-3-5-3 5-3-5-3 5-3-5-3 5-3-5-3 5-3-5-3 5-3-5-3 5-3-5-3 5-3-5-3 5-3-5-3 5-3h35l5 3-5 3 5 3-5 3 5 3-5 3 5 3-5 3 5 3-5 3 5 3-5 3 5 3-5 3 5 3-5 3 5 3-5 3 5 3-5 3 5 3-5 3 5 3-5 3 5 3" fill="url(#b)" stroke-width="2"/>

<path d="m745 121.3h30m-40 110.2h50m-40-10h30m-15 55.5c3-1.9 6.4-2.3 8.7-.2m-8.7 29.2 8.7-29.2c2.3-7.9 5-21.1 16.3-26m-50.2 30.5c10-30 25-30 25-30l.2 54.7" stroke-width="1.5"/>

<path d="m857 163h11v127h-11" fill="url(#b)" stroke="none"/>

<path d="m46 371h24m-12 7-12-7v-40h24v40zm-37 28h74m-74-75h74m725 75h85m-85-75h85m-155 10h20m10-10-10 10v65m-30-75 10 10v65m-30 0h80m-80-75h80m-170 4h25m0 71v-71h20v-4m-45 75v-71h-20v-4m-20 75h105m-105-75h105m-190 25h25m-60 50h95m-95-75h95m-35 75v-50h10v-25m-35 75v-50h-10v-25m-75 0v75m-25-75v75m-25 0h75m-75-75h75m-125 0v75m-25-75v75m-25 0h75m-75-75h75m-125 0v75m-75-75v75m-25 0h125m-125-75h125" stroke-width="2"/>

<text fill="#000" font-family="Arial" font-size="32px">
<tspan x="47" y="465">A</tspan>
<tspan x="172" y="465">B</tspan>
<tspan x="295" y="465">C</tspan>
<tspan x="398" y="465">D</tspan>
<tspan x="510" y="465">E</tspan>
<tspan x="636" y="465">F</tspan>
<tspan x="750" y="465">G</tspan>
<tspan x="853" y="465">H</tspan>
</text>
</svg>
